<?xml version="1.0" encoding="utf-8"?>
<!-- Generator: Adobe Illustrator 19.1.0, SVG Export Plug-In . SVG Version: 6.00 Build 0)  -->
<svg version="1.1" xmlns="http://www.w3.org/2000/svg" xmlns:xlink="http://www.w3.org/1999/xlink" x="0px" y="0px"
	 viewBox="0 0 600 800" style="enable-background:new 0 0 600 800;" xml:space="preserve">
<style type="text/css">
	.st0{display:none;}
	.st1{display:inline;fill:#726F6F;}
	.st2{display:inline;}
	.st3{fill:#FFFFFF;}
	.st4{display:inline;fill:none;stroke:#000000;stroke-width:2;stroke-miterlimit:10;}
	.st5{fill:#FF9E08;}
	.st6{fill:url(#SVGID_1_);}
	.st7{fill:url(#SVGID_2_);}
	.st8{fill:url(#SVGID_3_);}
	.st9{fill:url(#SVGID_4_);}
	.st10{fill:url(#SVGID_5_);}
	.st11{fill:url(#SVGID_6_);}
	.st12{fill:url(#SVGID_7_);}
	.st13{display:inline;fill:url(#SVGID_8_);}
	.st14{display:inline;fill:url(#SVGID_9_);}
	.st15{display:inline;fill:url(#SVGID_10_);}
	.st16{display:inline;fill:url(#SVGID_11_);}
	.st17{display:inline;fill:url(#SVGID_12_);}
	.st18{display:inline;fill:url(#SVGID_13_);}
	.st19{display:inline;fill:url(#SVGID_14_);}
	.st20{fill:none;stroke:#FFFFFF;stroke-miterlimit:10;}
	.st21{display:inline;fill:none;stroke:#FFFFFF;stroke-miterlimit:10;}
	.st22{display:inline;opacity:0.7;fill:#FFFFFF;}
	.st23{display:inline;opacity:0.7;fill:#B3B3B3;}
	.st24{display:inline;opacity:0.7;fill:#FFFFFF;stroke:#FFFFFF;stroke-width:2;stroke-miterlimit:10;}
	.st25{display:inline;fill:none;}
</style>
<g id="Layer_7" class="st0">
	<rect x="-14.3" y="95" class="st1" width="626.7" height="607.3"/>
</g>
<g id="Cube" class="st0">
	<g class="st2">
		<g id="XMLID_1_">
			<g>
				<polygon class="st3" points="335.2,276.4 336.3,432.4 202.9,508.8 201.8,354 				"/>
				<polygon class="st3" points="334.5,275.9 201.8,354 68.3,276.4 202.1,198.9 				"/>
				<polygon class="st3" points="201.8,354 202.9,508.8 67.8,431.4 68.3,276.4 				"/>
			</g>
			<g>
			</g>
		</g>
	</g>
	<line class="st4" x1="398" y1="501.4" x2="397.8" y2="501.3"/>
	<line class="st4" x1="343.1" y1="532.6" x2="343.1" y2="532.6"/>
	<line class="st4" x1="421" y1="470.1" x2="420.9" y2="470"/>
</g>
<g id="Letter">
	<g>
		<path class="st5" d="M320.2,285.1l-2.8,1.7C318.4,286.2,319.3,285.7,320.2,285.1z"/>
		<path class="st5" d="M312.6,445.9l-54.7-31.4l0.1,63.1l-55.4,32.1l-1-149.3c0-4.3,2.2-8.2,5.9-10.4l50.5-29.7v43.3l47.4-70.1l0,0
			c3.8-2,16.5-9.3,24-13.7c2.5-1.5,5.7,0.3,5.7,3.3l0.5,44.7l-40.5,63l40.4,23.6l0.1,15.6c0,1.6-0.8,3.1-2.2,3.8L312.6,445.9z"/>
	</g>
</g>
<g id="corners">
	<g>
		<linearGradient id="SVGID_1_" gradientUnits="userSpaceOnUse" x1="99.6469" y1="471.5284" x2="267.1469" y2="362.0284">
			<stop  offset="1.076729e-007" style="stop-color:#F24B01"/>
			<stop  offset="1" style="stop-color:#FEA621"/>
		</linearGradient>
		<path class="st6" d="M320.8,268l-121,69.8c-7,4.1-11.2,11.6-11.2,19.7l0.5,143.7l-15.7-9v-123l-0.1-21.7c0-8.1,4.2-15.6,11.2-19.7
			l123.9-67L320.8,268z"/>
		<linearGradient id="SVGID_2_" gradientUnits="userSpaceOnUse" x1="86.7757" y1="451.8396" x2="254.2758" y2="342.3396">
			<stop  offset="1.076729e-007" style="stop-color:#F24B01"/>
			<stop  offset="1" style="stop-color:#FEA621"/>
		</linearGradient>
		<path class="st7" d="M297.8,254.6l-121,70.2c-7,4.1-11.2,11.6-11.2,19.7l0.5,143.7l-15.7-9v-123l-0.1-21.7
			c0-8.1,4.2-15.6,11.2-19.7l123.7-67.5L297.8,254.6z"/>
		<linearGradient id="SVGID_3_" gradientUnits="userSpaceOnUse" x1="73.9046" y1="432.1509" x2="241.4046" y2="322.6509">
			<stop  offset="1.076729e-007" style="stop-color:#F24B01"/>
			<stop  offset="1" style="stop-color:#FEA621"/>
		</linearGradient>
		<path class="st8" d="M274.8,241.2l-121,70.5c-7,4.1-11.2,11.6-11.2,19.7l0.5,143.7l-15.7-9v-123l-0.1-21.7
			c0-8.1,4.2-15.6,11.2-19.7L262,233.8L274.8,241.2z"/>
		<linearGradient id="SVGID_4_" gradientUnits="userSpaceOnUse" x1="61.0334" y1="412.4621" x2="228.5334" y2="302.9621">
			<stop  offset="1.076729e-007" style="stop-color:#F24B01"/>
			<stop  offset="1" style="stop-color:#FEA621"/>
		</linearGradient>
		<path class="st9" d="M251.8,227.8l-121,70.8c-7,4.1-11.2,11.6-11.2,19.7l0.5,143.7l-15.7-9v-123l-0.1-21.7
			c0-8.1,4.2-15.6,11.2-19.7l123.4-68.3L251.8,227.8z"/>
		<linearGradient id="SVGID_5_" gradientUnits="userSpaceOnUse" x1="48.1623" y1="392.7733" x2="215.6623" y2="283.2733">
			<stop  offset="1.076729e-007" style="stop-color:#F24B01"/>
			<stop  offset="1" style="stop-color:#FEA621"/>
		</linearGradient>
		<path class="st10" d="M228.8,214.4l-121,71.2c-7,4.1-11.2,11.6-11.2,19.7L97.1,449l-15.7-9V317l-0.1-21.7
			c0-8.1,4.2-15.6,11.2-19.7l123.2-68.8L228.8,214.4z"/>
		<linearGradient id="SVGID_6_" gradientUnits="userSpaceOnUse" x1="35.6874" y1="373.6907" x2="203.1874" y2="264.1907">
			<stop  offset="1.076729e-007" style="stop-color:#F24B01"/>
			<stop  offset="1" style="stop-color:#FEA621"/>
		</linearGradient>
		<path class="st11" d="M208.3,202.5L85,274.6c-7,4.1-11.2,11.6-11.2,19.7l0.5,140.9l-15.7-7.7V306.1l-0.1-21.7
			c0-8.1,4.2-15.6,11.2-19.7l126-69.9L208.3,202.5z"/>
	</g>
	<linearGradient id="SVGID_7_" gradientUnits="userSpaceOnUse" x1="81.0415" y1="445.0981" x2="158.4228" y2="272.7035">
		<stop  offset="0" style="stop-color:#333333"/>
		<stop  offset="1" style="stop-color:#B3B3B3"/>
	</linearGradient>
	<line class="st12" x1="67.8" y1="276.4" x2="209.3" y2="357.6"/>
</g>
<g id="Layer_12" class="st0">
	<linearGradient id="SVGID_8_" gradientUnits="userSpaceOnUse" x1="311.0074" y1="345.2082" x2="333.8518" y2="301.4297">
		<stop  offset="0" style="stop-color:#333333"/>
		<stop  offset="1" style="stop-color:#B3B3B3"/>
	</linearGradient>
	<path class="st13" d="M357.4,294.9l-22.9,13.4c-7,4.1-11.2,11.6-11.2,19.7l0.1,20.4l-15.3-8.6v0l-0.1-21.7
		c0-8.1,4.2-15.6,11.2-19.7l21.7-12.8L357.4,294.9z"/>
	<linearGradient id="SVGID_9_" gradientUnits="userSpaceOnUse" x1="287.1366" y1="332.0111" x2="309.9811" y2="288.2326">
		<stop  offset="0" style="stop-color:#333333"/>
		<stop  offset="1" style="stop-color:#B3B3B3"/>
	</linearGradient>
	<path class="st14" d="M333.5,281.7l-22.9,13.4c-7,4.1-11.2,11.6-11.2,19.7l0.1,20.4l-15.3-8.6v0l-0.1-21.7
		c0-8.1,4.2-15.6,11.2-19.7l21.7-12.8L333.5,281.7z"/>
	<linearGradient id="SVGID_10_" gradientUnits="userSpaceOnUse" x1="263.2659" y1="318.814" x2="286.1104" y2="275.0355">
		<stop  offset="0" style="stop-color:#333333"/>
		<stop  offset="1" style="stop-color:#B3B3B3"/>
	</linearGradient>
	<path class="st15" d="M309.6,268.5L286.8,282c-7,4.1-11.2,11.6-11.2,19.7l0.1,20.4l-15.3-8.6v0l-0.1-21.7c0-8.1,4.2-15.6,11.2-19.7
		l21.7-12.8L309.6,268.5z"/>
	<linearGradient id="SVGID_11_" gradientUnits="userSpaceOnUse" x1="239.3952" y1="305.6169" x2="262.2397" y2="261.8384">
		<stop  offset="0" style="stop-color:#333333"/>
		<stop  offset="1" style="stop-color:#B3B3B3"/>
	</linearGradient>
	<path class="st16" d="M285.8,255.4l-22.9,13.4c-7,4.1-11.2,11.6-11.2,19.7l0.1,20.4l-15.3-8.6v0l-0.1-21.7
		c0-8.1,4.2-15.6,11.2-19.7l21.7-12.8L285.8,255.4z"/>
	<linearGradient id="SVGID_12_" gradientUnits="userSpaceOnUse" x1="215.5245" y1="292.4199" x2="238.369" y2="248.6414">
		<stop  offset="0" style="stop-color:#333333"/>
		<stop  offset="1" style="stop-color:#B3B3B3"/>
	</linearGradient>
	<path class="st17" d="M261.9,242.2L239,255.6c-7,4.1-11.2,11.6-11.2,19.7l0.1,20.4l-15.3-8.6v0l-0.1-21.7c0-8.1,4.2-15.6,11.2-19.7
		l21.7-12.8L261.9,242.2z"/>
	<linearGradient id="SVGID_13_" gradientUnits="userSpaceOnUse" x1="191.6538" y1="279.2228" x2="214.4983" y2="235.4443">
		<stop  offset="0" style="stop-color:#333333"/>
		<stop  offset="1" style="stop-color:#B3B3B3"/>
	</linearGradient>
	<path class="st18" d="M238,229l-22.9,13.4c-7,4.1-11.2,11.6-11.2,19.7l0.1,20.4l-15.3-8.6v0l-0.1-21.7c0-8.1,4.2-15.6,11.2-19.7
		l21.7-12.8L238,229z"/>
	<linearGradient id="SVGID_14_" gradientUnits="userSpaceOnUse" x1="257.8957" y1="283.1489" x2="260.2386" y2="278.659">
		<stop  offset="0" style="stop-color:#333333"/>
		<stop  offset="1" style="stop-color:#B3B3B3"/>
	</linearGradient>
	<line class="st19" x1="188.8" y1="239.4" x2="330.3" y2="320.6"/>
</g>
<g id="whites_stripes" class="st0">
	<g class="st2">
		<path class="st20" d="M429.5,717.9"/>
		<path class="st20" d="M433.5,716.8"/>
		<path class="st20" d="M437.4,715.8"/>
		<path class="st20" d="M441.4,714.8"/>
		<path class="st20" d="M445.3,713.7"/>
		<path class="st20" d="M449.2,712.7"/>
		<path class="st20" d="M453.2,711.7"/>
		<path class="st20" d="M457.1,710.6"/>
		<path class="st20" d="M461.1,709.6"/>
		<path class="st20" d="M465,708.5"/>
		<path class="st20" d="M468.9,707.5"/>
		<path class="st20" d="M472.9,706.5"/>
		<path class="st20" d="M476.8,705.4"/>
		<path class="st20" d="M480.8,704.4"/>
		<path class="st20" d="M480.8,689.4"/>
		<path class="st20" d="M480.8,674.4"/>
		<path class="st20" d="M480.8,659.4"/>
		<path class="st20" d="M480.8,644.4"/>
		<path class="st20" d="M480.8,629.5"/>
		<path class="st20" d="M480.8,614.5"/>
		<path class="st20" d="M480.8,599.5"/>
		<path class="st20" d="M480.8,584.5"/>
		<path class="st20" d="M480.8,569.5"/>
		<path class="st20" d="M480.8,554.5"/>
		<path class="st20" d="M480.8,539.6"/>
		<path class="st20" d="M480.8,524.6"/>
		<path class="st20" d="M480.8,509.6"/>
	</g>
	<line class="st21" x1="206" y1="508.4" x2="206" y2="351.3"/>
	<line class="st21" x1="211.7" y1="505.1" x2="211.7" y2="348"/>
	<line class="st21" x1="217.4" y1="501.9" x2="217.4" y2="344.7"/>
	<line class="st21" x1="223.1" y1="498.6" x2="223.1" y2="341.5"/>
	<line class="st21" x1="228.8" y1="495.3" x2="228.8" y2="338.2"/>
	<line class="st21" x1="234.4" y1="492" x2="234.4" y2="334.9"/>
	<line class="st21" x1="240.1" y1="488.8" x2="240.1" y2="331.6"/>
	<line class="st21" x1="245.8" y1="485.5" x2="245.8" y2="328.4"/>
	<line class="st21" x1="251.5" y1="482.2" x2="251.5" y2="325.1"/>
	<line class="st21" x1="257.2" y1="478.9" x2="257.2" y2="321.8"/>
	<line class="st21" x1="312.1" y1="289.2" x2="257.2" y2="376.3"/>
	<polyline class="st21" points="257.2,385.9 322.1,283.7 322.1,283.7 	"/>
	<line class="st21" x1="331.8" y1="278.3" x2="257.2" y2="395.9"/>
	<polyline class="st21" points="257.2,405.8 335.1,283 335.1,283 	"/>
	<line class="st21" x1="335.2" y1="292.8" x2="258.2" y2="414.1"/>
	<polyline class="st21" points="262.7,417 262.7,417 335.3,302.6 	"/>
	<line class="st21" x1="335.4" y1="312.4" x2="267.2" y2="419.8"/>
	<polyline class="st21" points="271.7,422.7 335.5,322.2 335.5,322.2 	"/>
	<polyline class="st21" points="336.3,418.8 292,393.3 291.8,393.2 	"/>
	<line class="st21" x1="336.3" y1="425" x2="289.1" y2="397.9"/>
	<line class="st21" x1="336.3" y1="431.2" x2="286.2" y2="402.4"/>
	<line class="st21" x1="332.1" y1="435" x2="283.3" y2="406.9"/>
	<line class="st21" x1="327" y1="438.2" x2="280.4" y2="411.5"/>
	<line class="st21" x1="321.8" y1="441.5" x2="277.5" y2="416"/>
	<line class="st21" x1="316.6" y1="444.6" x2="274.6" y2="420.5"/>
</g>
<g id="Layer_13" class="st0">
	<polygon class="st22" points="201.8,508.8 187,500.5 187,345.5 201.6,354.1 	"/>
	<polygon class="st22" points="333,275.9 201.5,353 187,344.5 319.2,267.7 	"/>
	<polygon class="st23" points="217.5,207.7 85,284.7 69.5,275.6 201.6,198.3 	"/>
	<polygon class="st22" points="234.5,217.7 102,294.7 85,284.7 217.5,207.7 	"/>
	<polygon class="st23" points="251.4,227.7 119,304.6 102,294.7 234.5,217.7 	"/>
	<polygon class="st22" points="268.4,237.7 136,314.6 119,304.6 251.4,227.7 	"/>
	<polygon class="st23" points="285.3,247.7 153,324.6 136,314.6 268.4,237.7 	"/>
	<polygon class="st24" points="302.3,257.7 170,334.5 153,324.6 285.3,247.7 	"/>
	<polygon class="st23" points="319.2,267.7 187,344.5 170,334.5 302.3,257.7 	"/>
</g>
<g id="Top_Stripes" class="st0">
</g>
<g id="Layer_11" class="st0">
</g>
<g id="Lat_stripes" class="st0">
	<polygon class="st23" points="187,345.5 187,500.5 170,490.9 170,335.5 	"/>
	<polygon class="st22" points="170,335.5 170,490.9 153,481.3 153,325.5 	"/>
	<polygon class="st23" points="153,325.5 153,481.3 136,471.7 136,315.5 	"/>
	<polygon class="st22" points="136,315.5 136,471.7 120.1,462.8 120.1,306.1 	"/>
	<polygon class="st23" points="120.1,306.1 120.1,462.8 102,452.6 102,295.4 	"/>
	<polygon class="st22" points="102,295.4 102,452.6 85,443 85,285.4 	"/>
	<polygon class="st23" points="85,285.4 85,443 67.8,433.3 69.5,276.3 	"/>
	<line class="st25" x1="187" y1="345.5" x2="187" y2="344.5"/>
	<line class="st25" x1="170" y1="335.5" x2="170" y2="334.7"/>
	<line class="st25" x1="153" y1="325.5" x2="153" y2="324.6"/>
	<line class="st25" x1="136" y1="315.5" x2="136" y2="314.6"/>
	<line class="st25" x1="102" y1="295.4" x2="102" y2="294.7"/>
	<line class="st25" x1="85" y1="285.4" x2="85" y2="284.7"/>
</g>
<g id="Layer_10">
</g>
</svg>
